<svg xmlns="http://www.w3.org/2000/svg" id="Layer_2" data-name="Layer 2" viewBox="0 0 464.77 670.71"><defs><style>      .cls-1 {        fill: #ffd834;      }    </style></defs><g id="Layer_1-2" data-name="Layer 1"><path class="cls-1" d="m339.75,274.74h0v230.8c0,21.49-5.94,38.85-17.82,52.04-11.88,13.2-28.66,22.63-50.91,22.63s-39.51-9.34-51.19-22.35c-11.69-13.01-17.53-30.45-17.53-52.32V139.86h77.28L139.79,0,0,139.86h77.28v367.37c0,27.77,4.61,52.09,13.82,72.97,8.42,19.1,20.68,35.32,36.81,48.65,33.75,27.91,81.55,41.86,143.4,41.86s109.55-13.95,143.11-41.86c16.03-13.33,28.22-29.55,36.6-48.65,9.16-20.88,13.75-45.2,13.75-72.97v-107.48c0-69.04-55.97-125.01-125.01-125.01Z"></path></g></svg>